<svg xmlns="http://www.w3.org/2000/svg" width="420" height="236" viewBox="0 0 420 236" font-family="Menlo, ui-monospace, monospace">
<rect x=".5" y=".5" width="419" height="235" fill="#DEDEDE" stroke="#1E1E1E"/>
<rect x="3.5" y="3.5" width="413" height="229" fill="none" stroke="#1E1E1E"/>
<rect x="4" y="4" width="412" height="22" fill="#1E1E1E"/>
<text x="12" y="19" font-size="12" fill="#FEFEFE" text-anchor="start">risks written per minute</text>
<text x="408" y="19" font-size="12" fill="#FEFEFE" text-anchor="end">peak 38</text>
<rect x="12" y="34" width="396" height="190" fill="#FEFEFE" stroke="#1E1E1E"/>
<line x1="40" y1="186" x2="396" y2="186" stroke="#E4E4E4"/><text x="34" y="189.0" font-size="8" fill="#666666" text-anchor="end">0</text>
<line x1="40" y1="154" x2="396" y2="154" stroke="#E4E4E4"/><text x="34" y="156.89473684210526" font-size="8" fill="#666666" text-anchor="end">10</text>
<line x1="40" y1="122" x2="396" y2="122" stroke="#E4E4E4"/><text x="34" y="124.78947368421052" font-size="8" fill="#666666" text-anchor="end">20</text>
<line x1="40" y1="90" x2="396" y2="90" stroke="#E4E4E4"/><text x="34" y="92.6842105263158" font-size="8" fill="#666666" text-anchor="end">30</text>
<rect x="56" y="183" width="40" height="3" fill="#1E1E1E"></rect>
<g><text x="76.0" y="176.78947368421052" font-size="11" fill="#1E1E1E" text-anchor="middle">1</text></g>
<text x="76.0" y="200" font-size="9" fill="#666666" text-anchor="middle">min 1</text>
<rect x="114" y="122" width="40" height="64" fill="#1E1E1E"></rect>
<g><text x="134.0" y="115.78947368421052" font-size="11" fill="#1E1E1E" text-anchor="middle">20</text></g>
<text x="134.0" y="200" font-size="9" fill="#666666" text-anchor="middle">min 2</text>
<rect x="172" y="67" width="40" height="119" fill="#1E1E1E"></rect>
<g><text x="192.0" y="61.21052631578948" font-size="11" fill="#1E1E1E" text-anchor="middle">37</text></g>
<text x="192.0" y="200" font-size="9" fill="#666666" text-anchor="middle">min 3</text>
<rect x="230" y="64" width="40" height="122" fill="#1E1E1E"></rect>
<g><text x="250.0" y="58.0" font-size="11" fill="#1E1E1E" text-anchor="middle">38</text></g>
<text x="250.0" y="200" font-size="9" fill="#666666" text-anchor="middle">min 4</text>
<rect x="288" y="64" width="40" height="122" fill="#1E1E1E"></rect>
<g><text x="308.0" y="58.0" font-size="11" fill="#1E1E1E" text-anchor="middle">38</text></g>
<text x="308.0" y="200" font-size="9" fill="#666666" text-anchor="middle">min 5</text>
<rect x="346" y="77" width="40" height="109" fill="#1E1E1E"></rect>
<g><text x="366.0" y="70.84210526315789" font-size="11" fill="#1E1E1E" text-anchor="middle">34</text></g>
<text x="366.0" y="200" font-size="9" fill="#666666" text-anchor="middle">min 6</text>
<text x="26" y="216" font-size="9" fill="#666666" text-anchor="start">after the first, one every 1.6 s</text>
</svg>
