<svg xmlns="http://www.w3.org/2000/svg" width="736" height="386" viewBox="0 0 736 386" font-family="Menlo, ui-monospace, monospace">
<rect x=".5" y=".5" width="735" height="385" fill="#141414" stroke="#555"/>
<line x1="0" y1="30" x2="736" y2="30" stroke="#555"/>
<text x="12" y="20" font-size="12" fill="#AAAAAA" text-anchor="start">risk register · list</text>
<text x="724" y="20" font-size="12" fill="#AAAAAA" text-anchor="end">client instance</text>
<text x="16" y="54" font-size="11" fill="#8A8A8A" text-anchor="start">Work</text>
<text x="430" y="54" font-size="11" fill="#8A8A8A" text-anchor="start">Priority</text>
<text x="530" y="54" font-size="11" fill="#8A8A8A" text-anchor="start">Status</text>
<text x="640" y="54" font-size="11" fill="#8A8A8A" text-anchor="start">Resolution</text>
<line x1="12" y1="64" x2="724" y2="64" stroke="#333"/>
<g><text x="16" y="88" font-size="11" fill="#8DB3FF" text-anchor="start" text-decoration="underline">RR-12</text><rect x="72" y="79" width="300" height="6" fill="#3A3A3A"/><rect x="72" y="87" width="180" height="6" fill="#3A3A3A"/><path d="M430 81 h8 M430 85 h8" fill="none" stroke="#F79232" stroke-width="1.8"/><text x="444" y="88" font-size="11" fill="#D6D6D6" text-anchor="start">Medium</text><text x="640" y="88" font-size="11" fill="#D6D6D6" text-anchor="start">Unresolved</text><line x1="12" y1="99" x2="724" y2="99" stroke="#262626"/><rect x="530.5" y="75.5" width="98" height="18" fill="none" stroke="#777"/><text x="579.5" y="88" font-size="10" fill="#BBBBBB" text-anchor="middle">Pending Review</text></g>
<g><text x="16" y="118" font-size="11" fill="#8DB3FF" text-anchor="start" text-decoration="underline">RR-13</text><rect x="72" y="109" width="280" height="6" fill="#3A3A3A"/><rect x="72" y="117" width="220" height="6" fill="#3A3A3A"/><path d="M430 111 h8 M430 115 h8" fill="none" stroke="#F79232" stroke-width="1.8"/><text x="444" y="118" font-size="11" fill="#D6D6D6" text-anchor="start">Medium</text><text x="640" y="118" font-size="11" fill="#D6D6D6" text-anchor="start">Unresolved</text><line x1="12" y1="129" x2="724" y2="129" stroke="#262626"/><rect x="530.5" y="105.5" width="98" height="18" fill="none" stroke="#777"/><text x="579.5" y="118" font-size="10" fill="#BBBBBB" text-anchor="middle">Pending Review</text></g>
<g><text x="16" y="148" font-size="11" fill="#8DB3FF" text-anchor="start" text-decoration="underline">RR-14</text><rect x="72" y="139" width="320" height="6" fill="#3A3A3A"/><rect x="72" y="147" width="160" height="6" fill="#3A3A3A"/><path d="M430 141 h8 M430 145 h8" fill="none" stroke="#F79232" stroke-width="1.8"/><text x="444" y="148" font-size="11" fill="#D6D6D6" text-anchor="start">Medium</text><text x="640" y="148" font-size="11" fill="#D6D6D6" text-anchor="start">Unresolved</text><line x1="12" y1="159" x2="724" y2="159" stroke="#262626"/><rect x="530.5" y="135.5" width="98" height="18" fill="none" stroke="#777"/><text x="579.5" y="148" font-size="10" fill="#BBBBBB" text-anchor="middle">Pending Review</text></g>
<g><text x="16" y="178" font-size="11" fill="#8DB3FF" text-anchor="start" text-decoration="underline">RR-15</text><rect x="72" y="169" width="260" height="6" fill="#3A3A3A"/><rect x="72" y="177" width="230" height="6" fill="#3A3A3A"/><path d="M430 173 l4 -4 l4 4 M430 177 l4 -4 l4 4" fill="none" stroke="#E5493A" stroke-width="1.6"/><text x="444" y="178" font-size="11" fill="#D6D6D6" text-anchor="start">High</text><text x="640" y="178" font-size="11" fill="#D6D6D6" text-anchor="start">Unresolved</text><line x1="12" y1="189" x2="724" y2="189" stroke="#262626"/><rect x="530.5" y="165.5" width="98" height="18" fill="none" stroke="#777"/><text x="579.5" y="178" font-size="10" fill="#BBBBBB" text-anchor="middle">Pending Review</text></g>
<g><text x="16" y="208" font-size="11" fill="#8DB3FF" text-anchor="start" text-decoration="underline">RR-16</text><rect x="72" y="199" width="310" height="6" fill="#3A3A3A"/><rect x="72" y="207" width="190" height="6" fill="#3A3A3A"/><path d="M430 201 h8 M430 205 h8" fill="none" stroke="#F79232" stroke-width="1.8"/><text x="444" y="208" font-size="11" fill="#D6D6D6" text-anchor="start">Medium</text><text x="640" y="208" font-size="11" fill="#D6D6D6" text-anchor="start">Unresolved</text><line x1="12" y1="219" x2="724" y2="219" stroke="#262626"/><rect x="530.5" y="195.5" width="98" height="18" fill="none" stroke="#777"/><text x="579.5" y="208" font-size="10" fill="#BBBBBB" text-anchor="middle">Pending Review</text></g>
<g><text x="16" y="238" font-size="11" fill="#8DB3FF" text-anchor="start" text-decoration="underline">RR-17</text><rect x="72" y="229" width="290" height="6" fill="#3A3A3A"/><rect x="72" y="237" width="210" height="6" fill="#3A3A3A"/><path d="M430 231 h8 M430 235 h8" fill="none" stroke="#F79232" stroke-width="1.8"/><text x="444" y="238" font-size="11" fill="#D6D6D6" text-anchor="start">Medium</text><text x="640" y="238" font-size="11" fill="#D6D6D6" text-anchor="start">Unresolved</text><line x1="12" y1="249" x2="724" y2="249" stroke="#262626"/><rect x="530.5" y="225.5" width="98" height="18" fill="none" stroke="#777"/><text x="579.5" y="238" font-size="10" fill="#BBBBBB" text-anchor="middle">Pending Review</text></g>
<g><text x="16" y="268" font-size="11" fill="#8DB3FF" text-anchor="start" text-decoration="underline">RR-18</text><rect x="72" y="259" width="330" height="6" fill="#3A3A3A"/><rect x="72" y="267" width="150" height="6" fill="#3A3A3A"/><path d="M430 261 h8 M430 265 h8" fill="none" stroke="#F79232" stroke-width="1.8"/><text x="444" y="268" font-size="11" fill="#D6D6D6" text-anchor="start">Medium</text><text x="640" y="268" font-size="11" fill="#D6D6D6" text-anchor="start">Unresolved</text><line x1="12" y1="279" x2="724" y2="279" stroke="#262626"/><rect x="530.5" y="255.5" width="98" height="18" fill="none" stroke="#777"/><text x="579.5" y="268" font-size="10" fill="#BBBBBB" text-anchor="middle">Pending Review</text></g>
<g><text x="16" y="298" font-size="11" fill="#8DB3FF" text-anchor="start" text-decoration="underline">RR-19</text><rect x="72" y="289" width="270" height="6" fill="#3A3A3A"/><rect x="72" y="297" width="240" height="6" fill="#3A3A3A"/><path d="M430 291 h8 M430 295 h8" fill="none" stroke="#F79232" stroke-width="1.8"/><text x="444" y="298" font-size="11" fill="#D6D6D6" text-anchor="start">Medium</text><text x="640" y="298" font-size="11" fill="#D6D6D6" text-anchor="start">Unresolved</text><line x1="12" y1="309" x2="724" y2="309" stroke="#262626"/><rect x="530.5" y="285.5" width="98" height="18" fill="none" stroke="#777"/><text x="579.5" y="298" font-size="10" fill="#BBBBBB" text-anchor="middle">Pending Review</text></g>
<g><text x="16" y="328" font-size="11" fill="#8DB3FF" text-anchor="start" text-decoration="underline">RR-20</text><rect x="72" y="319" width="300" height="6" fill="#3A3A3A"/><rect x="72" y="327" width="200" height="6" fill="#3A3A3A"/><path d="M430 321 h8 M430 325 h8" fill="none" stroke="#F79232" stroke-width="1.8"/><text x="444" y="328" font-size="11" fill="#D6D6D6" text-anchor="start">Medium</text><text x="640" y="328" font-size="11" fill="#D6D6D6" text-anchor="start">Unresolved</text><line x1="12" y1="339" x2="724" y2="339" stroke="#262626"/><g opacity="0"><rect x="530.5" y="315.5" width="98" height="18" fill="none" stroke="#777"/><text x="579.5" y="328" font-size="10" fill="#BBBBBB" text-anchor="middle">Pending Review</text></g><g><rect x="530" y="315" width="98" height="19" fill="#8DB3FF"/><text x="579" y="328" font-size="10" fill="#1E1E1E" text-anchor="middle">Risk Accepted</text></g></g>
<text x="368.0" y="362" font-size="11" fill="#AAAAAA" text-anchor="middle">50 of 168</text>
</svg>
