<svg xmlns="http://www.w3.org/2000/svg" width="420" height="296" viewBox="0 0 420 296" font-family="Menlo, ui-monospace, monospace">
<rect x=".5" y=".5" width="419" height="295" fill="#DEDEDE" stroke="#1E1E1E"/>
<rect x="3.5" y="3.5" width="413" height="289" fill="none" stroke="#1E1E1E"/>
<rect x="4" y="4" width="412" height="22" fill="#1E1E1E"/>
<text x="12" y="19" font-size="12" fill="#FEFEFE" text-anchor="start">assessment</text>
<text x="408" y="19" font-size="12" fill="#FEFEFE" text-anchor="end">24/7/365</text>
<text x="23" y="44" font-size="10" fill="#666666" text-anchor="start">275 artefacts · 8 registers</text>
<rect x="23" y="50" width="12" height="12" fill="#1E1E1E"></rect>
<rect x="38" y="50" width="12" height="12" fill="#1E1E1E"></rect>
<rect x="53" y="50" width="12" height="12" fill="#1E1E1E"></rect>
<rect x="68" y="50" width="12" height="12" fill="#1E1E1E"></rect>
<rect x="83" y="50" width="12" height="12" fill="#1E1E1E"></rect>
<rect x="98" y="50" width="12" height="12" fill="#1E1E1E"></rect>
<rect x="113" y="50" width="12" height="12" fill="#1E1E1E"></rect>
<rect x="128" y="50" width="12" height="12" fill="#1E1E1E"></rect>
<rect x="143" y="50" width="12" height="12" fill="#1E1E1E"></rect>
<rect x="158" y="50" width="12" height="12" fill="#1E1E1E"></rect>
<rect x="173" y="50" width="12" height="12" fill="#1E1E1E"></rect>
<rect x="188" y="50" width="12" height="12" fill="#1E1E1E"></rect>
<rect x="203" y="50" width="12" height="12" fill="#1E1E1E"></rect>
<rect x="218" y="50" width="12" height="12" fill="#1E1E1E"></rect>
<rect x="233" y="50" width="12" height="12" fill="#1E1E1E"></rect>
<rect x="248" y="50" width="12" height="12" fill="#1E1E1E"></rect>
<rect x="263" y="50" width="12" height="12" fill="#1E1E1E"></rect>
<rect x="278" y="50" width="12" height="12" fill="#1E1E1E"></rect>
<rect x="293" y="50" width="12" height="12" fill="#1E1E1E"></rect>
<rect x="308" y="50" width="12" height="12" fill="#1E1E1E"></rect>
<rect x="323" y="50" width="12" height="12" fill="#1E1E1E"></rect>
<rect x="338" y="50" width="12" height="12" fill="#1E1E1E"></rect>
<rect x="353" y="50" width="12" height="12" fill="#1E1E1E"></rect>
<rect x="368" y="50" width="12" height="12" fill="#1E1E1E"></rect>
<rect x="383" y="50" width="12" height="12" fill="#1E1E1E"></rect>
<rect x="23" y="65" width="12" height="12" fill="#1E1E1E"></rect>
<rect x="38" y="65" width="12" height="12" fill="#1E1E1E"></rect>
<rect x="53" y="65" width="12" height="12" fill="#1E1E1E"></rect>
<rect x="68" y="65" width="12" height="12" fill="#1E1E1E"></rect>
<rect x="83" y="65" width="12" height="12" fill="#1E1E1E"></rect>
<rect x="98" y="65" width="12" height="12" fill="#1E1E1E"></rect>
<rect x="113" y="65" width="12" height="12" fill="#1E1E1E"></rect>
<rect x="128" y="65" width="12" height="12" fill="#1E1E1E"></rect>
<rect x="143" y="65" width="12" height="12" fill="#1E1E1E"></rect>
<rect x="158" y="65" width="12" height="12" fill="#1E1E1E"></rect>
<rect x="173" y="65" width="12" height="12" fill="#1E1E1E"></rect>
<rect x="188" y="65" width="12" height="12" fill="#1E1E1E"></rect>
<rect x="203" y="65" width="12" height="12" fill="#1E1E1E"></rect>
<rect x="218" y="65" width="12" height="12" fill="#1E1E1E"></rect>
<rect x="233" y="65" width="12" height="12" fill="#1E1E1E"></rect>
<rect x="248" y="65" width="12" height="12" fill="#1E1E1E"></rect>
<rect x="263" y="65" width="12" height="12" fill="#1E1E1E"></rect>
<rect x="278" y="65" width="12" height="12" fill="#1E1E1E"></rect>
<rect x="293" y="65" width="12" height="12" fill="#1E1E1E"></rect>
<rect x="308" y="65" width="12" height="12" fill="#1E1E1E"></rect>
<rect x="323" y="65" width="12" height="12" fill="#1E1E1E"></rect>
<rect x="338" y="65" width="12" height="12" fill="#1E1E1E"></rect>
<rect x="353" y="65" width="12" height="12" fill="#1E1E1E"></rect>
<rect x="368" y="65" width="12" height="12" fill="#1E1E1E"></rect>
<rect x="383" y="65" width="12" height="12" fill="#1E1E1E"></rect>
<rect x="23" y="80" width="12" height="12" fill="#1E1E1E"></rect>
<rect x="38" y="80" width="12" height="12" fill="#1E1E1E"></rect>
<rect x="53" y="80" width="12" height="12" fill="#1E1E1E"></rect>
<rect x="68" y="80" width="12" height="12" fill="#1E1E1E"></rect>
<rect x="83" y="80" width="12" height="12" fill="#1E1E1E"></rect>
<rect x="98" y="80" width="12" height="12" fill="#1E1E1E"></rect>
<rect x="113" y="80" width="12" height="12" fill="#1E1E1E"></rect>
<rect x="128" y="80" width="12" height="12" fill="#1E1E1E"></rect>
<rect x="143" y="80" width="12" height="12" fill="#1E1E1E"></rect>
<rect x="158" y="80" width="12" height="12" fill="#1E1E1E"></rect>
<rect x="173" y="80" width="12" height="12" fill="#1E1E1E"></rect>
<rect x="188" y="80" width="12" height="12" fill="#1E1E1E"></rect>
<rect x="203" y="80" width="12" height="12" fill="#1E1E1E"></rect>
<rect x="218" y="80" width="12" height="12" fill="#1E1E1E"></rect>
<rect x="233" y="80" width="12" height="12" fill="#1E1E1E"></rect>
<rect x="248" y="80" width="12" height="12" fill="#1E1E1E"></rect>
<rect x="263" y="80" width="12" height="12" fill="#1E1E1E"></rect>
<rect x="278" y="80" width="12" height="12" fill="#1E1E1E"></rect>
<rect x="293" y="80" width="12" height="12" fill="#1E1E1E"></rect>
<rect x="308" y="80" width="12" height="12" fill="#1E1E1E"></rect>
<rect x="323" y="80" width="12" height="12" fill="#1E1E1E"></rect>
<rect x="338" y="80" width="12" height="12" fill="#1E1E1E"></rect>
<rect x="353" y="80" width="12" height="12" fill="#1E1E1E"></rect>
<rect x="368" y="80" width="12" height="12" fill="#1E1E1E"></rect>
<rect x="383" y="80" width="12" height="12" fill="#1E1E1E"></rect>
<rect x="23" y="95" width="12" height="12" fill="#1E1E1E"></rect>
<rect x="38" y="95" width="12" height="12" fill="#1E1E1E"></rect>
<rect x="53" y="95" width="12" height="12" fill="#1E1E1E"></rect>
<rect x="68" y="95" width="12" height="12" fill="#1E1E1E"></rect>
<rect x="83" y="95" width="12" height="12" fill="#1E1E1E"></rect>
<rect x="98" y="95" width="12" height="12" fill="#1E1E1E"></rect>
<rect x="113" y="95" width="12" height="12" fill="#1E1E1E"></rect>
<rect x="128" y="95" width="12" height="12" fill="#1E1E1E"></rect>
<rect x="143" y="95" width="12" height="12" fill="#1E1E1E"></rect>
<rect x="158" y="95" width="12" height="12" fill="#1E1E1E"></rect>
<rect x="173" y="95" width="12" height="12" fill="#1E1E1E"></rect>
<rect x="188" y="95" width="12" height="12" fill="#1E1E1E"></rect>
<rect x="203" y="95" width="12" height="12" fill="#1E1E1E"></rect>
<rect x="218" y="95" width="12" height="12" fill="#1E1E1E"></rect>
<rect x="233" y="95" width="12" height="12" fill="#1E1E1E"></rect>
<rect x="248" y="95" width="12" height="12" fill="#1E1E1E"></rect>
<rect x="263" y="95" width="12" height="12" fill="#1E1E1E"></rect>
<rect x="278" y="95" width="12" height="12" fill="#1E1E1E"></rect>
<rect x="293" y="95" width="12" height="12" fill="#1E1E1E"></rect>
<rect x="308" y="95" width="12" height="12" fill="#1E1E1E"></rect>
<rect x="323" y="95" width="12" height="12" fill="#1E1E1E"></rect>
<rect x="338" y="95" width="12" height="12" fill="#1E1E1E"></rect>
<rect x="353" y="95" width="12" height="12" fill="#1E1E1E"></rect>
<rect x="368" y="95" width="12" height="12" fill="#1E1E1E"></rect>
<rect x="383" y="95" width="12" height="12" fill="#1E1E1E"></rect>
<rect x="23" y="110" width="12" height="12" fill="#1E1E1E"></rect>
<rect x="38" y="110" width="12" height="12" fill="#1E1E1E"></rect>
<rect x="53" y="110" width="12" height="12" fill="#1E1E1E"></rect>
<rect x="68" y="110" width="12" height="12" fill="#1E1E1E"></rect>
<rect x="83" y="110" width="12" height="12" fill="#1E1E1E"></rect>
<rect x="98" y="110" width="12" height="12" fill="#1E1E1E"></rect>
<rect x="113" y="110" width="12" height="12" fill="#1E1E1E"></rect>
<rect x="128" y="110" width="12" height="12" fill="#1E1E1E"></rect>
<rect x="143" y="110" width="12" height="12" fill="#1E1E1E"></rect>
<rect x="158" y="110" width="12" height="12" fill="#1E1E1E"></rect>
<rect x="173" y="110" width="12" height="12" fill="#1E1E1E"></rect>
<rect x="188" y="110" width="12" height="12" fill="#1E1E1E"></rect>
<rect x="203" y="110" width="12" height="12" fill="#1E1E1E"></rect>
<rect x="218" y="110" width="12" height="12" fill="#1E1E1E"></rect>
<rect x="233" y="110" width="12" height="12" fill="#1E1E1E"></rect>
<rect x="248" y="110" width="12" height="12" fill="#1E1E1E"></rect>
<rect x="263" y="110" width="12" height="12" fill="#1E1E1E"></rect>
<rect x="278" y="110" width="12" height="12" fill="#1E1E1E"></rect>
<rect x="293" y="110" width="12" height="12" fill="#1E1E1E"></rect>
<rect x="308" y="110" width="12" height="12" fill="#1E1E1E"></rect>
<rect x="323" y="110" width="12" height="12" fill="#1E1E1E"></rect>
<rect x="338" y="110" width="12" height="12" fill="#1E1E1E"></rect>
<rect x="353" y="110" width="12" height="12" fill="#1E1E1E"></rect>
<rect x="368" y="110" width="12" height="12" fill="#1E1E1E"></rect>
<rect x="383" y="110" width="12" height="12" fill="#1E1E1E"></rect>
<rect x="23" y="125" width="12" height="12" fill="#1E1E1E"></rect>
<rect x="38" y="125" width="12" height="12" fill="#1E1E1E"></rect>
<rect x="53" y="125" width="12" height="12" fill="#1E1E1E"></rect>
<rect x="68" y="125" width="12" height="12" fill="#1E1E1E"></rect>
<rect x="83" y="125" width="12" height="12" fill="#1E1E1E"></rect>
<rect x="98" y="125" width="12" height="12" fill="#1E1E1E"></rect>
<rect x="113" y="125" width="12" height="12" fill="#1E1E1E"></rect>
<rect x="128" y="125" width="12" height="12" fill="#1E1E1E"></rect>
<rect x="143" y="125" width="12" height="12" fill="#1E1E1E"></rect>
<rect x="158" y="125" width="12" height="12" fill="#1E1E1E"></rect>
<rect x="173" y="125" width="12" height="12" fill="#1E1E1E"></rect>
<rect x="188" y="125" width="12" height="12" fill="#1E1E1E"></rect>
<rect x="203" y="125" width="12" height="12" fill="#1E1E1E"></rect>
<rect x="218" y="125" width="12" height="12" fill="#1E1E1E"></rect>
<rect x="233" y="125" width="12" height="12" fill="#1E1E1E"></rect>
<rect x="248" y="125" width="12" height="12" fill="#1E1E1E"></rect>
<rect x="263" y="125" width="12" height="12" fill="#1E1E1E"></rect>
<rect x="278" y="125" width="12" height="12" fill="#1E1E1E"></rect>
<rect x="293" y="125" width="12" height="12" fill="#1E1E1E"></rect>
<rect x="308" y="125" width="12" height="12" fill="#1E1E1E"></rect>
<rect x="323" y="125" width="12" height="12" fill="#1E1E1E"></rect>
<rect x="338" y="125" width="12" height="12" fill="#1E1E1E"></rect>
<rect x="353" y="125" width="12" height="12" fill="#1E1E1E"></rect>
<rect x="368" y="125" width="12" height="12" fill="#1E1E1E"></rect>
<rect x="383" y="125" width="12" height="12" fill="#1E1E1E"></rect>
<rect x="23" y="140" width="12" height="12" fill="#1E1E1E"></rect>
<rect x="38" y="140" width="12" height="12" fill="#1E1E1E"></rect>
<rect x="53" y="140" width="12" height="12" fill="#1E1E1E"></rect>
<rect x="68" y="140" width="12" height="12" fill="#1E1E1E"></rect>
<rect x="83" y="140" width="12" height="12" fill="#1E1E1E"></rect>
<rect x="98" y="140" width="12" height="12" fill="#1E1E1E"></rect>
<rect x="113" y="140" width="12" height="12" fill="#1E1E1E"></rect>
<rect x="128" y="140" width="12" height="12" fill="#1E1E1E"></rect>
<rect x="143" y="140" width="12" height="12" fill="#1E1E1E"></rect>
<rect x="158" y="140" width="12" height="12" fill="#1E1E1E"></rect>
<rect x="173" y="140" width="12" height="12" fill="#1E1E1E"></rect>
<rect x="188" y="140" width="12" height="12" fill="#1E1E1E"></rect>
<rect x="203" y="140" width="12" height="12" fill="#1E1E1E"></rect>
<rect x="218" y="140" width="12" height="12" fill="#1E1E1E"></rect>
<rect x="233" y="140" width="12" height="12" fill="#1E1E1E"></rect>
<rect x="248" y="140" width="12" height="12" fill="#1E1E1E"></rect>
<rect x="263" y="140" width="12" height="12" fill="#1E1E1E"></rect>
<rect x="278" y="140" width="12" height="12" fill="#1E1E1E"></rect>
<rect x="293" y="140" width="12" height="12" fill="#1E1E1E"></rect>
<rect x="308" y="140" width="12" height="12" fill="#1E1E1E"></rect>
<rect x="323" y="140" width="12" height="12" fill="#1E1E1E"></rect>
<rect x="338" y="140" width="12" height="12" fill="#1E1E1E"></rect>
<rect x="353" y="140" width="12" height="12" fill="#1E1E1E"></rect>
<rect x="368" y="140" width="12" height="12" fill="#4A4A4A"></rect>
<rect x="383" y="140" width="12" height="12" fill="#4A4A4A"></rect>
<rect x="23" y="155" width="12" height="12" fill="#4A4A4A"></rect>
<rect x="38" y="155" width="12" height="12" fill="#4A4A4A"></rect>
<rect x="53" y="155" width="12" height="12" fill="#4A4A4A"></rect>
<rect x="68" y="155" width="12" height="12" fill="#4A4A4A"></rect>
<rect x="83" y="155" width="12" height="12" fill="#4A4A4A"></rect>
<rect x="98" y="155" width="12" height="12" fill="#4A4A4A"></rect>
<rect x="113" y="155" width="12" height="12" fill="#4A4A4A"></rect>
<rect x="128" y="155" width="12" height="12" fill="#4A4A4A"></rect>
<rect x="143" y="155" width="12" height="12" fill="#4A4A4A"></rect>
<rect x="158" y="155" width="12" height="12" fill="#4A4A4A"></rect>
<rect x="173" y="155" width="12" height="12" fill="#4A4A4A"></rect>
<rect x="188" y="155" width="12" height="12" fill="#4A4A4A"></rect>
<rect x="203" y="155" width="12" height="12" fill="#4A4A4A"></rect>
<rect x="218" y="155" width="12" height="12" fill="#4A4A4A"></rect>
<rect x="233" y="155" width="12" height="12" fill="#4A4A4A"></rect>
<rect x="248" y="155" width="12" height="12" fill="#4A4A4A"></rect>
<rect x="263" y="155" width="12" height="12" fill="#4A4A4A"></rect>
<rect x="278" y="155" width="12" height="12" fill="#4A4A4A"></rect>
<rect x="293" y="155" width="12" height="12" fill="#4A4A4A"></rect>
<rect x="308" y="155" width="12" height="12" fill="#4A4A4A"></rect>
<rect x="323" y="155" width="12" height="12" fill="#4A4A4A"></rect>
<rect x="338" y="155" width="12" height="12" fill="#4A4A4A"></rect>
<rect x="353" y="155" width="12" height="12" fill="#4A4A4A"></rect>
<rect x="368" y="155" width="12" height="12" fill="#4A4A4A"></rect>
<rect x="383" y="155" width="12" height="12" fill="#4A4A4A"></rect>
<rect x="23" y="170" width="12" height="12" fill="#4A4A4A"></rect>
<rect x="38" y="170" width="12" height="12" fill="#4A4A4A"></rect>
<rect x="53" y="170" width="12" height="12" fill="#4A4A4A"></rect>
<rect x="68" y="170" width="12" height="12" fill="#4A4A4A"></rect>
<rect x="83" y="170" width="12" height="12" fill="#4A4A4A"></rect>
<rect x="98" y="170" width="12" height="12" fill="#4A4A4A"></rect>
<rect x="113" y="170" width="12" height="12" fill="#4A4A4A"></rect>
<rect x="128" y="170" width="12" height="12" fill="#4A4A4A"></rect>
<rect x="143" y="170" width="12" height="12" fill="#4A4A4A"></rect>
<rect x="158" y="170" width="12" height="12" fill="#4A4A4A"></rect>
<rect x="173" y="170" width="12" height="12" fill="#4A4A4A"></rect>
<rect x="188" y="170" width="12" height="12" fill="#4A4A4A"></rect>
<rect x="203" y="170" width="12" height="12" fill="#4A4A4A"></rect>
<rect x="218" y="170" width="12" height="12" fill="#4A4A4A"></rect>
<rect x="233" y="170" width="12" height="12" fill="#4A4A4A"></rect>
<rect x="248" y="170" width="12" height="12" fill="#4A4A4A"></rect>
<rect x="263" y="170" width="12" height="12" fill="#4A4A4A"></rect>
<rect x="278" y="170" width="12" height="12" fill="#4A4A4A"></rect>
<rect x="293" y="170" width="12" height="12" fill="#4A4A4A"></rect>
<rect x="308" y="170" width="12" height="12" fill="#4A4A4A"></rect>
<rect x="323" y="170" width="12" height="12" fill="#4A4A4A"></rect>
<rect x="338" y="170" width="12" height="12" fill="#4A4A4A"></rect>
<rect x="353" y="170" width="12" height="12" fill="#4A4A4A"></rect>
<rect x="368" y="170" width="12" height="12" fill="#4A4A4A"></rect>
<rect x="383" y="170" width="12" height="12" fill="#4A4A4A"></rect>
<rect x="23" y="185" width="12" height="12" fill="#4A4A4A"></rect>
<rect x="38" y="185" width="12" height="12" fill="#4A4A4A"></rect>
<rect x="53" y="185" width="12" height="12" fill="#4A4A4A"></rect>
<rect x="68" y="185" width="12" height="12" fill="#4A4A4A"></rect>
<rect x="83" y="185" width="12" height="12" fill="#4A4A4A"></rect>
<rect x="98" y="185" width="12" height="12" fill="#4A4A4A"></rect>
<rect x="113" y="185" width="12" height="12" fill="#4A4A4A"></rect>
<rect x="128" y="185" width="12" height="12" fill="#4A4A4A"></rect>
<rect x="143" y="185" width="12" height="12" fill="#9A9A9A"></rect>
<rect x="158" y="185" width="12" height="12" fill="#9A9A9A"></rect>
<rect x="173" y="185" width="12" height="12" fill="#9A9A9A"></rect>
<rect x="188" y="185" width="12" height="12" fill="#9A9A9A"></rect>
<rect x="203" y="185" width="12" height="12" fill="#9A9A9A"></rect>
<rect x="218" y="185" width="12" height="12" fill="#9A9A9A"></rect>
<rect x="233" y="185" width="12" height="12" fill="#9A9A9A"></rect>
<rect x="248" y="185" width="12" height="12" fill="#9A9A9A"></rect>
<rect x="263" y="185" width="12" height="12" fill="#9A9A9A"></rect>
<rect x="278" y="185" width="12" height="12" fill="#9A9A9A"></rect>
<rect x="293" y="185" width="12" height="12" fill="#9A9A9A"></rect>
<rect x="308" y="185" width="12" height="12" fill="#9A9A9A"></rect>
<rect x="323" y="185" width="12" height="12" fill="#9A9A9A"></rect>
<rect x="338" y="185" width="12" height="12" fill="#9A9A9A"></rect>
<rect x="353" y="185" width="12" height="12" fill="#9A9A9A"></rect>
<rect x="368" y="185" width="12" height="12" fill="#9A9A9A"></rect>
<rect x="383" y="185" width="12" height="12" fill="#9A9A9A"></rect>
<rect x="23" y="200" width="12" height="12" fill="#9A9A9A"></rect>
<rect x="38" y="200" width="12" height="12" fill="#9A9A9A"></rect>
<rect x="53" y="200" width="12" height="12" fill="#9A9A9A"></rect>
<rect x="68" y="200" width="12" height="12" fill="#9A9A9A"></rect>
<rect x="83" y="200" width="12" height="12" fill="#9A9A9A"></rect>
<rect x="98" y="200" width="12" height="12" fill="#9A9A9A"></rect>
<rect x="113" y="200" width="12" height="12" fill="#9A9A9A"></rect>
<rect x="128" y="200" width="12" height="12" fill="#9A9A9A"></rect>
<rect x="143" y="200" width="12" height="12" fill="#9A9A9A"></rect>
<rect x="158" y="200" width="12" height="12" fill="#9A9A9A"></rect>
<rect x="173" y="200" width="12" height="12" fill="#9A9A9A"></rect>
<rect x="188" y="200" width="12" height="12" fill="#9A9A9A"></rect>
<rect x="203" y="200" width="12" height="12" fill="#9A9A9A"></rect>
<rect x="218" y="200" width="12" height="12" fill="#9A9A9A"></rect>
<rect x="233" y="200" width="12" height="12" fill="#9A9A9A"></rect>
<rect x="248" y="200" width="12" height="12" fill="#8DB3FF"></rect>
<rect x="263" y="200" width="12" height="12" fill="#8DB3FF"></rect>
<rect x="278" y="200" width="12" height="12" fill="#8DB3FF"></rect>
<rect x="293" y="200" width="12" height="12" fill="#8DB3FF"></rect>
<rect x="308" y="200" width="12" height="12" fill="#8DB3FF"></rect>
<rect x="323" y="200" width="12" height="12" fill="#8DB3FF"></rect>
<rect x="338" y="200" width="12" height="12" fill="#8DB3FF"></rect>
<rect x="353" y="200" width="12" height="12" fill="#8DB3FF"></rect>
<rect x="368" y="200" width="12" height="12" fill="#8DB3FF"></rect>
<rect x="383" y="200" width="12" height="12" fill="#8DB3FF"></rect>
<rect x="19" y="48" width="380" height="6" fill="#8DB3FF" opacity=".9"></rect>
<text x="23" y="237" font-size="18" fill="#1E1E1E" text-anchor="start" font-family="Helvetica, Arial, sans-serif" font-weight="500">275</text><text x="65" y="237" font-size="11" fill="#1E1E1E" text-anchor="start">artefacts assessed</text><text x="397" y="237" font-size="11" fill="#1E1E1E" text-anchor="end">24/7/365</text>
<rect x="23.5" y="248.5" width="10" height="10" fill="#1E1E1E" stroke="#1E1E1E"/><text x="38" y="258" font-size="10" fill="#1E1E1E" text-anchor="start">Risk Register 173</text>
<rect x="213.5" y="248.5" width="10" height="10" fill="#4A4A4A" stroke="#4A4A4A"/><text x="228" y="258" font-size="10" fill="#1E1E1E" text-anchor="start">System Improver 60</text>
<rect x="23.5" y="264.5" width="10" height="10" fill="#9A9A9A" stroke="#9A9A9A"/><text x="38" y="274" font-size="10" fill="#1E1E1E" text-anchor="start">Data Library 32</text>
<rect x="213.5" y="264.5" width="10" height="10" fill="#8DB3FF" stroke="#8DB3FF"/><text x="228" y="274" font-size="10" fill="#1E1E1E" text-anchor="start">Other registers 10</text>
</svg>
